<svg height="202.314805" viewBox="0 0 2663.0042 1090.0306" width="494.279199" xmlns="http://www.w3.org/2000/svg" xmlns:xlink="http://www.w3.org/1999/xlink"><clipPath id="a"><path d="m0 817.523h1997.254v-817.523h-1997.254z"/></clipPath><g clip-path="url(#a)" transform="matrix(1.3333333 0 0 -1.3333333 -.000267 1090.0306)"><path d="m0 0c-119.495 18.7-359.687 67.086-465.215 92.107-81.686 19.431-91.253 46.094-101.133 91.539l-.381 1.76c-3.031 13.913-28.649 152.023-39.288 210.11l-105.916 149.532h1428.166l-105.916-149.532c-10.084-55.064-36.252-196.076-39.285-210.094l-.383-1.776c-9.879-45.445-19.447-72.108-101.125-91.537-105.232-24.953-345.438-73.321-465.38-92.109l-2.074-.324z" fill="#fff" transform="translate(998.973 272.4755)"/><path d="m0 0-92.664-130.816c-10.162-55.556-36.717-198.658-39.731-212.587-8.72-40.052-12.901-64.413-91.519-83.119-104.671-24.817-344.087-73.067-464.354-91.906-120.223 18.816-359.524 67.089-464.194 91.906-78.619 18.706-82.797 43.067-91.521 83.119-3.013 13.838-29.571 157.031-39.732 212.587l-92.659 130.816z" transform="translate(1689.3119 804.1328)"/><path d="m0 0h-1230.144l73.07-104.331c18.266-108.505 29.568-178.264 34.25-202.584 8.129-42.311 9.567-60.556 53.274-72.338 86.905-20.55 338.767-72.338 454.513-89.806 115.745 17.468 367.629 69.186 454.582 89.806 43.702 11.782 45.141 30.027 53.269 72.338 4.57 24.32 15.984 94.079 34.255 202.584z" fill="#fff" transform="translate(1616.2416 779.54)"/><path d="m0 0h-118.143l-9.132 54.139h507.28v-54.139h-13.699v41.444h-370.599z" transform="translate(613.6624 568.895)"/><path d="m0 0h509.201v39.684h-515.801z" transform="translate(484.3299 635.3881)"/><path d="m0 0h190.778v28.427h-190.709z" transform="translate(802.8201 502.2421)"/><path d="m0 0h120.679l-22.835 39.708h409.394v-39.547h13.699v53.271h-558.318z" transform="translate(472.7537 687.7011)"/><path d="m0 0h-192.468v-79.76h192.559z" transform="translate(1201.1625 741.1323)"/><path d="m0 0c3.128-4.749 8.927-10.277 28.178-15.505 9.316-2.285 19.683-4.569 34.023-7.764h204.295v28.154h-269.145c.712-1.706 1.586-3.343 2.604-4.885z" transform="translate(522.9886 433.5805)"/><path d="m0 0h278.166v79.532h-291.841z" transform="translate(511.3196 476.5995)"/><path d="m0 0c71.243-14.018 140.887-26.965 190.893-34.799v133.465h-190.893z" transform="translate(802.8201 365.0312)"/><path d="m0 0h292.459l13.359 79.784h-305.818z" transform="translate(1214.3607 568.895)"/><path d="m0 0v-28.315l314.561.115 19.728 28.2z" transform="translate(1214.3607 715.7646)"/><path d="m0 0h13.699v40.167h363.931c-.48-3.906-3.881-30.828-5.639-40.279h114.924l9.133 54.002h-496.048z" transform="translate(1008.6937 502.2421)"/><path d="m0 0h477.235l7.714 39.526h-484.949z" transform="translate(1008.6937 450.2255)"/><path d="m1201.254 623.011h-192.56v-28.473h192.56z"/><path d="m0 0c-19.021-3.632-72.362-12.925-94.19-16.876v78.528h337.238c-16.146-18.997-49.369-24.64-243.048-61.652m-107.891 75.328v-108.188c121.32 19.843 356.898 66.561 442.617 87.888 19.364 4.819 25.095 10.665 28.223 15.414 1.031 1.53 1.892 3.166 2.559 4.886z" transform="translate(1116.5844 363.1376)"/><path d="m0 0c-18.453 7.42-32.552 17.709-42.3 30.871-9.752 13.158-14.623 28.195-14.623 45.105 0 16.909 4.871 31.946 14.623 45.107 9.748 13.161 23.847 23.45 42.3 30.868 18.45 7.418 40.245 11.127 65.383 11.127 42.862 0 78.956-10.371 108.286-31.106v-5.744l-11.602-14.119c-27.716 20.257-59.944 30.39-96.684 30.39-19.983 0-37.307-2.632-51.968-7.896-14.665-5.265-25.946-12.921-33.84-22.973-7.897-10.049-11.844-21.936-11.844-35.654 0-13.722 3.947-25.604 11.844-35.656 7.894-10.049 19.175-17.707 33.84-22.971 14.661-5.263 31.985-7.897 51.968-7.897 18.37 0 35.248 2.55 50.639 7.658 15.386 5.103 30.655 12.84 45.805 23.21l11.842-14.118v-5.741c-14.502-10.211-30.497-18.029-47.979-23.451-17.486-5.422-37.586-8.137-60.307-8.137-25.138 0-46.933 3.709-65.383 11.127" transform="translate(56.9232 11.1269)"/><path d="m0 0-54.386-84.23h114.572l-54.385 84.23zm-12.569 20.103h30.939l107.803-161.762v-5.744h-25.138l-27.556 42.593h-141.159l-27.555-42.593h-25.139v5.744z" transform="translate(400.5159 150.7538)"/><path d="m0 0c34.964 0 60.79 5.024 77.468 15.076 16.678 10.049 25.017 26.082 25.017 48.097s-8.339 38.048-25.017 48.099c-16.678 10.049-42.504 15.074-77.468 15.074h-65.263v-126.346zm-89.434-20.579v167.506h94.267c40.446 0 70.943-7.023 91.489-21.058 20.545-14.04 30.817-34.937 30.817-62.696 0-27.756-10.272-48.659-30.817-62.694-20.546-14.041-51.043-21.058-91.489-21.058z" transform="translate(676.3089 23.9296)"/><path d="m896.505 3.35h-24.171v167.506h24.171z"/><path d="m0 0v-146.927h167.747l-8.218-20.579h-183.7v167.506z" transform="translate(999.2308 170.8564)"/><path d="m0 0v-146.927h167.746l-8.218-20.579h-183.699v167.506z" transform="translate(1262.9369 170.8564)"/><path d="m0 0-54.385-84.23h114.571l-54.385 84.23zm-12.567 20.103h30.938l107.805-161.762v-5.744h-25.141l-27.555 42.593h-141.16l-27.554-42.593h-25.138v5.744z" transform="translate(1604.472 150.7538)"/><path d="m0 0c-18.455 7.42-32.553 17.709-42.301 30.871-9.751 13.158-14.624 28.195-14.624 45.105 0 16.909 4.873 31.946 14.624 45.107 9.748 13.161 23.846 23.45 42.301 30.868 18.447 7.418 40.242 11.127 65.383 11.127 42.86 0 78.955-10.371 108.285-31.106v-5.744l-11.603-14.119c-27.716 20.257-59.942 30.39-96.682 30.39-19.986 0-37.308-2.632-51.968-7.896-14.665-5.265-25.948-12.921-33.84-22.973-7.898-10.049-11.846-21.936-11.846-35.654 0-13.722 3.948-25.604 11.846-35.656 7.892-10.049 19.175-17.707 33.84-22.971 14.66-5.263 31.982-7.897 51.968-7.897 18.369 0 35.247 2.55 50.637 7.658 15.386 5.103 30.656 12.84 45.805 23.21l11.843-14.118v-5.741c-14.503-10.211-30.497-18.029-47.979-23.451-17.487-5.422-37.587-8.137-60.306-8.137-25.141 0-46.936 3.709-65.383 11.127" transform="translate(1823.5853 11.1269)"/></g></svg>