<?xml version="1.0" encoding="utf-8"?>
<svg xmlns="http://www.w3.org/2000/svg" viewBox="0 0 500 500">
  <path d="M 250.285 99.07 C 113.157 99.07 1.994 163.272 1.994 250.176 C 1.994 337.083 113.157 405.616 250.285 405.616 C 387.414 405.616 498.579 334.814 498.579 250.176 C 498.579 165.529 387.414 99.07 250.285 99.07 Z M 250.285 190.197 C 251.543 190.197 252.78 190.574 253.831 191.279 C 289.862 215.618 313.434 236.453 326.851 249.666 C 327.556 250.371 327.658 251.209 327.627 251.638 C 327.627 252.057 327.485 252.864 326.729 253.518 C 313.587 265.044 290.29 282.896 254.077 302.596 C 252.922 303.23 251.594 303.578 250.265 303.578 C 248.926 303.578 247.619 303.25 246.444 302.596 C 210.21 282.896 186.933 265.024 173.771 253.518 C 173.016 252.864 172.893 252.037 172.862 251.638 C 172.862 251.209 172.944 250.371 173.649 249.666 C 187.066 236.484 210.629 215.618 246.668 191.279 C 247.721 190.574 248.957 190.197 250.214 190.197 M 36.716 251.025 C 36.716 233.46 42.202 216.651 52.982 201.068 C 63.507 185.874 78.732 172.284 98.239 160.706 C 138.039 137.072 191.889 124.054 249.939 124.003 L 247.047 126.27 C 217.118 149.629 152.865 204.39 58.633 308.738 C 44.103 290.722 36.745 271.288 36.745 251.025 M 413.921 334.936 C 373.211 364.693 313.558 381.758 250.214 381.758 C 186.862 381.758 127.208 364.693 86.498 334.936 C 86.447 334.936 86.345 334.834 86.345 334.641 C 86.345 334.488 86.345 334.364 86.478 334.262 C 97.554 321.827 119.595 298.12 142.759 279.248 C 143.291 278.818 143.965 278.563 144.67 278.563 C 145.222 278.563 145.753 278.716 146.234 278.993 C 159.272 286.646 168.918 292.807 179.147 299.358 C 195.302 309.668 211.988 320.315 242.776 337.103 C 245.065 338.34 247.649 339.014 250.265 339.014 C 252.871 339.014 255.466 338.36 257.745 337.103 C 288.533 320.315 305.219 309.668 321.373 299.358 C 331.603 292.807 341.248 286.646 354.297 278.993 C 354.767 278.716 355.299 278.563 355.85 278.563 C 356.555 278.563 357.229 278.789 357.761 279.248 C 380.926 298.141 402.966 321.827 414.053 334.262 C 414.145 334.364 414.176 334.488 414.176 334.641 C 414.176 334.814 414.053 334.916 414.023 334.936 M 441.918 308.738 C 347.686 204.368 283.433 149.629 253.505 126.27 L 250.613 124.003 C 308.632 124.054 362.513 137.072 402.312 160.706 C 421.809 172.284 437.045 185.843 447.568 201.068 C 458.349 216.651 463.826 233.46 463.826 251.025 C 463.826 271.318 456.47 290.722 441.939 308.738" fill="black" style="stroke-width: 1;"/>
</svg>