<svg xmlns="http://www.w3.org/2000/svg" viewBox="0 0 225 225" xml:space="preserve">
  <path fill="#f54201" d="M63.254 168.776 50.403 154.86l108.43-100.292 18.569 19.939-108.885 100.7c-1.73-2.126-3.375-4.147-5.263-6.431"/>
  <path fill="#fbfbfb" d="M176.774 99.055h4.806c10.183 36.707-16.083 76.97-53.565 81.7-8.73 1.1-17.79-.416-26.7-.726-2.853-.099-3.985-1.37-3.888-4.402.222-6.95.07-13.913.07-21.306 17.996 6.975 34.512 5.626 48.67-7.387 14.212-13.06 16.987-29.42 11.379-47.88zm-46.776-27.333c-16.928-6.092-32.302-3.926-45.417 7.914-14.434 13.03-17.708 29.375-11.801 47.999H48.426c-5.028-23.695.04-44.859 17.12-62.241 18.552-18.882 41.227-24.128 67.039-17.788v24.819c-.718-.18-1.47-.368-2.587-.703"/>
</svg>
