<?xml version="1.0" encoding="utf-8"?>
<svg xmlns="http://www.w3.org/2000/svg" viewBox="0 0 500 500">
  <g id="Слой_1" transform="matrix(1, 0, 0, 1, -97.955704, 135.860306)">
    <path class="st0" d="M 330.387 -112.1 C 454.187 -120.4 561.187 -26.799 569.487 97.001 C 577.787 220.801 484.187 327.801 360.387 336.101 C 236.587 344.401 129.587 250.801 121.287 127.001 C 115.587 41.101 159.387 -40.399 234.087 -83.099 C 263.587 -99.9 296.587 -109.8 330.387 -112.1 M 337.187 -92.999 C 223.987 -88.599 135.787 6.801 140.187 120.101 C 144.587 233.301 239.987 321.501 353.287 317.101 C 466.487 312.701 554.687 217.301 550.287 104.001 C 547.587 35.001 510.387 -27.999 451.187 -63.699 C 416.887 -84.399 377.287 -94.599 337.187 -92.999" style="fill: rgb(14, 58, 47); stroke-width: 1;"/>
    <path class="st0" d="M 287.587 -56.899 C 309.487 -64.199 332.587 -67.299 355.687 -66.099 C 358.087 -66.199 360.487 -65.799 362.787 -64.899 C 388.087 -44.799 408.087 -18.799 421.087 10.801 C 435.187 44.901 440.387 82.101 436.187 118.801 C 433.587 145.501 427.187 171.701 417.187 196.601 L 435.087 196.601 C 436.887 192.001 438.387 187.401 440.287 182.901 C 461.287 185.601 480.687 195.201 495.487 210.301 C 480.787 225.501 461.287 235.201 440.287 237.701 C 438.587 233.201 436.887 228.801 435.287 224.301 L 269.687 224.301 C 266.887 224.501 264.287 225.501 261.987 227.101 C 255.887 230.101 249.887 233.301 243.887 236.401 C 241.687 237.401 239.187 237.901 236.787 237.701 L 215.387 237.701 C 200.387 221.701 188.187 203.201 179.387 183.101 L 228.087 183.101 C 231.587 182.701 235.087 183.101 238.387 184.201 C 246.487 187.701 254.587 191.201 262.687 194.801 C 268.787 198.401 276.087 196.301 282.887 196.801 C 281.887 179.501 276.887 162.701 268.287 147.601 C 259.187 133.101 246.487 121.101 231.387 112.901 C 211.187 102.001 189.387 94.501 166.787 90.401 C 169.787 66.501 177.587 43.501 189.787 22.801 C 205.687 26.401 221.287 31.101 236.587 36.801 C 252.987 42.601 268.487 50.701 282.687 60.701 L 287.287 58.501 C 278.087 48.301 267.787 39.101 256.487 31.201 C 240.487 19.501 223.687 8.901 206.187 -0.699 C 220.787 -18.599 238.787 -33.499 259.087 -44.499 C 272.987 -38.799 285.987 -31.099 297.687 -21.699 C 315.487 -7.499 331.987 8.301 346.987 25.401 L 352.887 23.801 C 337.987 -7.699 313.987 -34.199 287.587 -56.899 M 369.187 132.501 C 357.387 136.201 350.887 148.701 354.587 160.501 C 358.287 172.301 370.787 178.801 382.587 175.101 C 394.287 171.401 400.887 158.901 397.187 147.101 C 395.787 142.701 392.987 138.801 389.287 136.001 C 383.487 131.701 375.987 130.401 369.187 132.501 M -124.51 441.401" style="fill: rgb(14, 58, 47); stroke-width: 1;"/>
  </g>
</svg>