<?xml version="1.0" encoding="UTF-8"?>
<svg id="logosandtypes_com" data-name="logosandtypes com" xmlns="http://www.w3.org/2000/svg" viewBox="0 0 150 150">
  <defs>
    <style>
      .cls-1 {
        fill: none;
      }

      .cls-2 {
        fill-rule: evenodd;
      }
    </style>
  </defs>
  <path class="cls-1" d="M0,0H150V150H0V0Z"/>
  <path class="cls-2" d="M14.34,37.7c.91,0,1.81,.18,2.64,.52l.61,.29,55.46,29.4c.4,.21,.68,.59,.78,1.02l.04,.33v11.48c0,.45-.2,.88-.54,1.17l-.28,.19-55.46,29.4c-.8,.43-1.68,.69-2.58,.78l-.68,.03H4.02c-1.35,0-2.12-1.46-1.48-2.55l.19-.26,26.89-30.82c.49-.56,1.15-.94,1.88-1.07l.44-.05,29.81-1.55v-1.99l-29.81-1.55c-.74-.04-1.45-.33-2-.81l-.31-.31L2.73,40.51c-.89-1.01-.29-2.55,.96-2.78l.32-.03H14.34Z"/>
  <path class="cls-2" d="M145.98,37.7c1.46,0,2.24,1.71,1.29,2.81l-26.89,30.82c-.59,.67-1.42,1.08-2.32,1.13l-29.81,1.55v1.99l29.81,1.55c.89,.05,1.73,.45,2.32,1.13l26.89,30.82c.96,1.1,.17,2.81-1.29,2.81h-10.32c-1.14,0-2.25-.28-3.26-.81l-55.46-29.4c-.5-.27-.82-.79-.82-1.35v-11.48c0-.57,.31-1.09,.82-1.35l55.46-29.4c1-.53,2.12-.81,3.26-.81h10.32Z"/>
</svg>